<svg xmlns="http://www.w3.org/2000/svg" xmlns:xlink="http://www.w3.org/1999/xlink" width="500" zoomAndPan="magnify" viewBox="0 0 375 374.999991" height="500" preserveAspectRatio="xMidYMid meet" version="1.0"><defs><g/><clipPath id="id1"><path d="M 127.402344 87.722656 L 141.652344 87.722656 L 141.652344 101.972656 L 127.402344 101.972656 Z M 127.402344 87.722656 " clip-rule="nonzero"/></clipPath><clipPath id="id2"><path d="M 134.660156 268.699219 L 160.160156 268.699219 L 160.160156 294.199219 L 134.660156 294.199219 Z M 134.660156 268.699219 " clip-rule="nonzero"/></clipPath><clipPath id="id3"><path d="M 141.917969 69.695312 L 167.417969 69.695312 L 167.417969 95.195312 L 141.917969 95.195312 Z M 141.917969 69.695312 " clip-rule="nonzero"/></clipPath><clipPath id="id4"><path d="M 212.765625 293.980469 L 227.015625 293.980469 L 227.015625 308.230469 L 212.765625 308.230469 Z M 212.765625 293.980469 " clip-rule="nonzero"/></clipPath><clipPath id="id5"><path d="M 251.890625 174.859375 L 277.390625 174.859375 L 277.390625 200.359375 L 251.890625 200.359375 Z M 251.890625 174.859375 " clip-rule="nonzero"/></clipPath><clipPath id="id6"><path d="M 264.53125 202.816406 L 279.53125 202.816406 L 279.53125 217.816406 L 264.53125 217.816406 Z M 264.53125 202.816406 " clip-rule="nonzero"/></clipPath></defs><rect x="-37.5" width="450" fill="#ffffff" y="-37.499999" height="449.999989" fill-opacity="1"/><rect x="-37.5" width="450" fill="#fafafa" y="-37.499999" height="449.999989" fill-opacity="1"/><rect x="-37.5" width="450" fill="#ffffff" y="-37.499999" height="449.999989" fill-opacity="1"/><rect x="-37.5" width="450" fill="#fafafa" y="-37.499999" height="449.999989" fill-opacity="1"/><path fill="#db9d54" d="M 187.429688 40.429688 C 106.242188 40.429688 40.429688 106.242188 40.429688 187.429688 C 40.429688 268.617188 106.242188 334.429688 187.429688 334.429688 C 268.617188 334.429688 334.429688 268.617188 334.429688 187.429688 C 334.429688 106.242188 268.617188 40.429688 187.429688 40.429688 " fill-opacity="1" fill-rule="nonzero"/><g clip-path="url(#id1)"><path fill="#ffffff" d="M 141.65625 94.847656 C 136.65625 96.023438 135.703125 96.976562 134.527344 101.972656 C 133.355469 96.976562 132.398438 96.023438 127.402344 94.847656 C 132.398438 93.671875 133.355469 92.71875 134.527344 87.722656 C 135.703125 92.71875 136.65625 93.671875 141.65625 94.847656 Z M 141.65625 94.847656 " fill-opacity="1" fill-rule="nonzero"/></g><g fill="#fafafa" fill-opacity="1"><g transform="translate(61.708565, 192.634426)"><g><path d="M -8.476562 -17.257812 C -4.144531 -9.105469 4.714844 -2.472656 11.046875 -5.792969 C 19.671875 -10.3125 18.109375 -21.917969 12.542969 -30.566406 C 7.703125 -38.050781 -0.0859375 -43.296875 -6.777344 -39.789062 C -13.242188 -36.398438 -14.101562 -27.875 -8.476562 -17.257812 Z M -3.878906 -34.265625 C -0.558594 -36.007812 8.082031 -24.332031 3.410156 -21.886719 C -1.886719 -19.105469 -7.25 -32.5 -3.878906 -34.265625 Z M -3.878906 -34.265625 "/></g></g></g><g fill="#fafafa" fill-opacity="1"><g transform="translate(83.576628, 180.928546)"><g><path d="M 7.746094 -3.023438 C 13.132812 -5.125 13.589844 -8.410156 12.417969 -11.273438 C 10.710938 -15.503906 6.335938 -16.679688 6.359375 -18.433594 C 6.351562 -18.59375 6.425781 -18.675781 6.519531 -18.714844 C 7.605469 -19.136719 13.71875 -13.519531 16.066406 -10.300781 C 17.339844 -8.566406 18.941406 -7.394531 22.863281 -8.925781 C 24.988281 -9.753906 28.417969 -11.148438 27.355469 -14.707031 C 25.441406 -21.144531 17.714844 -22.8125 13.226562 -22.3125 C 16.136719 -24.753906 16.355469 -28.378906 15.191406 -32.058594 C 11.90625 -42.425781 4.320312 -42.894531 -0.308594 -41.085938 C -4.039062 -39.628906 -4.3125 -38.652344 -4.972656 -38.394531 C -5.304688 -38.265625 -7.109375 -38.429688 -8.339844 -37.953125 C -13.300781 -36.015625 -8.601562 -27.886719 -7.425781 -25.570312 C -6.230469 -23.207031 -4.894531 -20.625 -4.285156 -18.085938 C -3.410156 -14.453125 -3.308594 -9.867188 -2.035156 -6.609375 C -0.984375 -3.914062 0.898438 -0.351562 7.746094 -3.023438 Z M 1.589844 -36.222656 C 1.636719 -36.238281 1.683594 -36.257812 1.730469 -36.277344 C 2.914062 -36.738281 4.710938 -35.480469 5.882812 -33.871094 C 7.09375 -32.164062 7.585938 -30.070312 6.03125 -29.027344 C 5.910156 -28.925781 5.8125 -28.886719 5.671875 -28.832031 C 2.886719 -27.746094 -0.652344 -35.128906 1.589844 -36.222656 Z M 1.589844 -36.222656 "/></g></g></g><g fill="#fafafa" fill-opacity="1"><g transform="translate(111.701806, 170.034702)"><g><path d="M -3.234375 -14.828125 C 0.230469 -6.203125 6.367188 -1.703125 13.175781 -3.527344 C 19.542969 -5.230469 23.355469 -12.179688 20.71875 -21.238281 C 19.898438 -24.117188 16.988281 -29.109375 11.746094 -27.707031 C 11.402344 -27.617188 11.023438 -27.464844 10.597656 -27.296875 C 5.648438 -25.183594 8.910156 -19.078125 9.257812 -18.171875 C 9.492188 -17.5 8.996094 -16.789062 8.164062 -16.566406 C 7.085938 -16.277344 5.542969 -16.757812 4.421875 -18.976562 C 1.382812 -25.042969 1.855469 -33.09375 5.777344 -34.511719 C 5.875 -34.535156 5.976562 -34.5625 6.074219 -34.589844 C 8.03125 -35.113281 8.296875 -33.136719 10.324219 -32.628906 C 10.769531 -32.539062 11.234375 -32.558594 11.675781 -32.675781 C 13.195312 -33.082031 14.558594 -34.65625 13.796875 -36.917969 C 12.992188 -39.328125 9.34375 -42.183594 4.785156 -40.964844 C -7.558594 -37.660156 -6.414062 -22.796875 -3.234375 -14.828125 Z M -3.234375 -14.828125 "/></g></g></g><g fill="#fafafa" fill-opacity="1"><g transform="translate(135.649097, 163.399331)"><g><path d="M 4.0625 -0.613281 L 11.683594 -1.765625 C 18.148438 -2.746094 10.132812 -18.097656 10.273438 -18.53125 C 10.527344 -19.234375 11.734375 -19.726562 12.886719 -19.898438 C 13.992188 -20.066406 15.03125 -19.96875 15.265625 -19.4375 C 15.585938 -18.667969 15.542969 -2.351562 20.355469 -3.078125 L 27.523438 -4.164062 C 30.03125 -4.542969 30.304688 -7.816406 29.867188 -10.367188 C 29.078125 -14.914062 23.214844 -21.460938 20.800781 -26.226562 C 18.542969 -30.652344 16.90625 -35.378906 13.566406 -39.132812 C 12.699219 -40.128906 11.105469 -40.503906 9.648438 -40.28125 C 8.695312 -40.136719 7.832031 -39.75 7.25 -39.203125 C 4.054688 -36.257812 3.515625 -27.609375 3.328125 -26.144531 C 2.914062 -23.109375 2.621094 -20.296875 2.101562 -17.292969 C 1.4375 -13.550781 0.0195312 -9.695312 -0.164062 -5.820312 C -0.277344 -3.855469 0.199219 -0.03125 4.0625 -0.613281 Z M 10.453125 -34.300781 C 12.167969 -34.816406 14.242188 -28.566406 14.140625 -26.859375 C 14.078125 -25.925781 12.902344 -25.234375 11.746094 -25.0625 C 10.746094 -24.910156 9.730469 -25.164062 9.417969 -25.886719 C 8.765625 -27.480469 8.433594 -33.738281 10.453125 -34.300781 Z M 10.453125 -34.300781 "/></g></g></g><g fill="#fafafa" fill-opacity="1"><g transform="translate(165.605363, 158.784376)"><g><path d="M 7.804688 -0.21875 C 13.433594 -0.375 14.683594 -2.792969 15.035156 -4.679688 C 15.960938 -9.730469 11.75 -15.191406 10.332031 -20.578125 C 9.933594 -22.089844 8.128906 -26.859375 10.152344 -27.066406 C 11.566406 -27.207031 18.011719 -18.054688 17.535156 -7.894531 C 17.351562 -3.578125 19.871094 -0.554688 24.988281 -0.699219 C 29.042969 -0.8125 31.046875 -3.605469 31.003906 -6.902344 C 30.878906 -14.964844 28.558594 -19.972656 27.144531 -36.164062 C 26.917969 -38.847656 24.730469 -39.039062 23.917969 -39.019531 C 22.09375 -38.964844 21.261719 -37.878906 21.316406 -36.003906 C 21.515625 -28.753906 21.375 -26.570312 20.664062 -26.550781 C 20.410156 -26.542969 20.046875 -26.835938 19.578125 -27.332031 C 18.796875 -28.121094 12.007812 -38.632812 5.214844 -38.445312 C 1.261719 -38.335938 3.140625 -31.03125 2.863281 -24.582031 C 2.496094 -15.996094 0.542969 -11.429688 0.328125 -6.402344 C 0.148438 -1.882812 4.5625 -0.128906 7.804688 -0.21875 Z M 7.804688 -0.21875 "/></g></g></g><g fill="#fafafa" fill-opacity="1"><g transform="translate(196.298682, 158.24318)"><g><path d="M 4.554688 0.292969 L 10.324219 0.664062 C 17.964844 1.152344 16.144531 -8.515625 13.875 -16.6875 C 12.101562 -23.054688 13.699219 -33.671875 13.011719 -35.648438 C 12.625 -36.738281 11.675781 -37.765625 10.054688 -37.871094 C 7.675781 -38.023438 6.675781 -36.664062 6.453125 -35.609375 C 5.511719 -31.199219 6.15625 -21.503906 3.265625 -14.476562 C -1.1875 -3.683594 1.214844 0.078125 4.554688 0.292969 Z M 4.554688 0.292969 "/></g></g></g><g fill="#fafafa" fill-opacity="1"><g transform="translate(211.374027, 158.934009)"><g><path d="M 10.132812 1.511719 C 11.335938 1.691406 12.589844 1.875 13.792969 2.054688 C 19.359375 2.886719 22.773438 1.652344 24.046875 1.023438 C 29.253906 -1.585938 29.550781 -10.101562 23.246094 -11.503906 C 22.703125 -11.636719 22.253906 -11.703125 21.800781 -11.769531 C 19.542969 -12.109375 18.523438 -11.796875 17.871094 -11.894531 C 17.570312 -11.941406 17.335938 -12.078125 17.128906 -12.417969 C 15.507812 -14.964844 28.179688 -24.304688 29.0625 -30.222656 C 29.660156 -34.234375 22.460938 -35.460938 19.652344 -35.878906 C 11.328125 -37.121094 8.78125 -33.449219 9.289062 -31.015625 C 9.679688 -29.164062 10.800781 -28.433594 12.105469 -28.238281 C 14.011719 -27.953125 16.28125 -28.742188 17.601562 -29.007812 C 18.027344 -29.097656 18.441406 -29.140625 18.792969 -29.085938 C 20.097656 -28.890625 20.585938 -27.691406 19.171875 -26.109375 C 16.839844 -23.535156 4.359375 -16.523438 1.933594 -8.835938 C 0.171875 -3.203125 4.714844 0.703125 10.132812 1.511719 Z M 10.132812 1.511719 "/></g></g></g><g fill="#fafafa" fill-opacity="1"><g transform="translate(237.353963, 162.618363)"><g><path d="M 3.96875 1.0625 L 11.410156 3.058594 C 17.730469 4.753906 16.535156 -12.523438 16.835938 -12.863281 C 17.351562 -13.40625 18.652344 -13.371094 19.78125 -13.070312 C 20.859375 -12.78125 21.769531 -12.273438 21.773438 -11.695312 C 21.757812 -10.859375 15.183594 4.070312 19.882812 5.332031 L 26.886719 7.210938 C 29.335938 7.867188 30.898438 4.980469 31.519531 2.46875 C 32.617188 -2.015625 29.871094 -10.363281 29.566406 -15.695312 C 29.269531 -20.65625 29.664062 -25.644531 28.109375 -30.417969 C 27.710938 -31.679688 26.398438 -32.660156 24.980469 -33.042969 C 24.046875 -33.292969 23.101562 -33.285156 22.347656 -33.015625 C 18.238281 -31.597656 14.28125 -23.890625 13.523438 -22.625 C 11.929688 -20.003906 10.53125 -17.546875 8.855469 -15.003906 C 6.746094 -11.839844 3.902344 -8.875 2.183594 -5.398438 C 1.292969 -3.644531 0.195312 0.0507812 3.96875 1.0625 Z M 23.316406 -27.242188 C 25.097656 -27.027344 24.492188 -20.46875 23.71875 -18.945312 C 23.285156 -18.113281 21.929688 -17.953125 20.804688 -18.253906 C 19.824219 -18.519531 19 -19.160156 19 -19.945312 C 19.039062 -21.667969 21.246094 -27.535156 23.316406 -27.242188 Z M 23.316406 -27.242188 "/></g></g></g><g fill="#fafafa" fill-opacity="1"><g transform="translate(266.663512, 170.448689)"><g><path d="M 13.039062 -26.675781 C 13.265625 -26.421875 13.527344 -26.261719 13.859375 -26.128906 C 15.175781 -25.601562 17.230469 -25.816406 18.640625 -25.25 C 20.289062 -24.589844 21.105469 -22.953125 19.34375 -18.140625 C 18.429688 -15.722656 14.046875 -9.558594 9.589844 -3.75 C 7.515625 -1.03125 7.34375 2.941406 11.71875 4.695312 L 16.332031 6.546875 C 22.214844 8.902344 24.234375 5.230469 24.546875 3.226562 C 25.527344 -3.042969 23.121094 -10.125 26.355469 -16.152344 C 28.46875 -20.058594 29.785156 -20.621094 31.199219 -20.054688 C 32.421875 -19.566406 33.738281 -18.21875 35.621094 -17.464844 C 39.078125 -16.132812 42 -22.0625 39.007812 -24.957031 C 37.773438 -26.105469 35.957031 -26.890625 33.085938 -28.039062 C 32.335938 -28.339844 31.488281 -28.679688 30.59375 -29.039062 C 29.320312 -29.546875 27.609375 -30.179688 25.960938 -30.839844 C 24.644531 -31.367188 23.558594 -31.800781 22.664062 -32.160156 C 20.265625 -33.121094 19.210938 -33.492188 17.695312 -33.660156 C 13.5625 -34.117188 11.074219 -28.722656 13.039062 -26.675781 Z M 13.039062 -26.675781 "/></g></g></g><g fill="#fafafa" fill-opacity="1"><g transform="translate(293.502919, 181.303434)"><g><path d="M 5.359375 -4.394531 C 4.976562 -0.410156 6.992188 3.695312 9.28125 4.902344 L 13.449219 7.105469 C 23.402344 12.367188 30.472656 -2.421875 23.65625 -6.023438 C 23.523438 -6.09375 23.34375 -6.1875 23.210938 -6.261719 C 22.917969 -6.355469 22.648438 -6.5 22.421875 -6.617188 C 19.644531 -8.085938 18.835938 -10.464844 19.996094 -12.660156 C 21.796875 -16.066406 27.578125 -7.910156 30.136719 -12.75 C 32.695312 -17.59375 23.554688 -19.613281 24.6875 -21.539062 C 24.949219 -22.03125 25.621094 -21.789062 26.472656 -21.339844 C 27.414062 -20.839844 28.511719 -20.089844 29.632812 -19.5 C 31.15625 -18.691406 32.644531 -18.25 33.550781 -19.207031 C 35.683594 -21.402344 33.851562 -25.527344 29.320312 -27.921875 C 28.335938 -28.441406 28.785156 -28.203125 27.796875 -28.726562 C 25.109375 -30.148438 21.101562 -29.511719 18.636719 -27.777344 C 12.527344 -23.488281 6.242188 -13.21875 5.359375 -4.394531 Z M 5.359375 -4.394531 "/></g></g></g><g fill="#fafafa" fill-opacity="1"><g transform="translate(126.424202, 239.324555)"><g><path d="M 15.109375 -2.105469 C 20.726562 -2.886719 23.90625 -6.363281 24.351562 -10.546875 C 24.933594 -15.839844 23 -20.664062 15.40625 -20.121094 C 9.285156 -19.671875 6.425781 -20.875 5.511719 -25.789062 C 4.394531 -31.757812 7.925781 -36.429688 12.753906 -37.101562 C 13.316406 -37.179688 13.886719 -37.203125 14.464844 -37.167969 C 14.808594 -37.160156 15.152344 -37.148438 15.488281 -37.195312 C 17.117188 -37.421875 18.453125 -38.523438 18.605469 -41.125 C 18.835938 -44.820312 15.308594 -45.472656 13.34375 -45.199219 C -0.246094 -43.308594 -3.210938 -28.808594 -2.394531 -21.308594 C -1.796875 -15.78125 1.011719 -0.140625 15.109375 -2.105469 Z M 15.109375 -2.105469 "/></g></g></g><g fill="#fafafa" fill-opacity="1"><g transform="translate(151.470437, 235.534219)"><g><path d="M 4.589844 -0.144531 L 13.207031 -0.414062 C 20.519531 -0.644531 13.648438 -18.753906 13.863281 -19.214844 C 14.234375 -19.964844 15.640625 -20.351562 16.945312 -20.390625 C 18.191406 -20.429688 19.335938 -20.183594 19.523438 -19.566406 C 19.78125 -18.664062 17.570312 -0.554688 23.011719 -0.726562 L 31.117188 -0.980469 C 33.949219 -1.070312 34.6875 -4.667969 34.539062 -7.554688 C 34.265625 -12.710938 28.621094 -20.757812 26.574219 -26.367188 C 24.648438 -31.582031 23.457031 -37.050781 20.246094 -41.65625 C 19.414062 -42.878906 17.691406 -43.507812 16.050781 -43.453125 C 14.972656 -43.421875 13.960938 -43.105469 13.242188 -42.570312 C 9.300781 -39.722656 7.558594 -30.195312 7.15625 -28.59375 C 6.296875 -25.277344 5.597656 -22.191406 4.625 -18.925781 C 3.390625 -14.859375 1.304688 -10.765625 0.589844 -6.488281 C 0.203125 -4.316406 0.226562 -0.0078125 4.589844 -0.144531 Z M 16.148438 -36.707031 C 18.125 -37.050781 19.597656 -29.835938 19.261719 -27.953125 C 19.066406 -26.925781 17.667969 -26.3125 16.363281 -26.273438 C 15.230469 -26.238281 14.136719 -26.65625 13.886719 -27.5 C 13.371094 -29.355469 13.832031 -36.347656 16.148438 -36.707031 Z M 16.148438 -36.707031 "/></g></g></g><g fill="#fafafa" fill-opacity="1"><g transform="translate(185.478504, 234.52251)"><g><path d="M 9.609375 0.792969 C 16.332031 1.347656 19.027344 -1.671875 19.257812 -5.125 C 19.578125 -10.386719 15.058594 -17.648438 15.441406 -18.183594 C 15.449219 -18.242188 15.503906 -18.234375 15.5625 -18.230469 C 15.957031 -18.199219 17.136719 -15.9375 21.261719 -15.597656 C 27.535156 -15.078125 31.234375 -18.53125 32.136719 -24.65625 C 33.984375 -36.679688 26.253906 -40.90625 20.488281 -41.382812 C 15.855469 -41.765625 15.046875 -40.921875 14.253906 -40.984375 C 13.859375 -41.019531 12.070312 -42.078125 10.484375 -42.207031 C 4.382812 -42.710938 5.167969 -32.234375 5.15625 -29.332031 C 5.136719 -26.375 5.324219 -23.117188 4.691406 -20.265625 C 3.785156 -16.1875 1.523438 -11.539062 1.199219 -7.640625 C 0.933594 -4.417969 1.074219 0.0898438 9.609375 0.792969 Z M 20.007812 -35.558594 C 20.066406 -35.554688 20.121094 -35.550781 20.179688 -35.546875 C 23.230469 -35.292969 25.25 -26.707031 20.996094 -26.148438 C 20.820312 -26.105469 20.652344 -26.117188 20.539062 -26.128906 C 17.089844 -26.414062 17.160156 -35.511719 20.007812 -35.558594 Z M 20.007812 -35.558594 "/></g></g></g><g fill="#fafafa" fill-opacity="1"><g transform="translate(214.819635, 236.92657)"><g><path d="M 4.519531 -21.019531 C 2.671875 -10.863281 5.851562 1.097656 13.710938 2.574219 C 24.410156 4.582031 31.085938 -6.6875 32.195312 -18.132812 C 33.132812 -28.054688 29.933594 -38.058594 21.628906 -39.617188 C 13.601562 -41.125 6.945312 -34.238281 4.519531 -21.019531 Z M 20.339844 -32.761719 C 24.464844 -31.988281 23.957031 -15.757812 18.160156 -16.84375 C 11.585938 -18.078125 16.160156 -33.546875 20.339844 -32.761719 Z M 20.339844 -32.761719 "/></g></g></g><g clip-path="url(#id2)"><path fill="#ffffff" d="M 160.167969 281.453125 C 151.222656 283.554688 149.515625 285.261719 147.414062 294.207031 C 145.308594 285.261719 143.601562 283.554688 134.660156 281.453125 C 143.601562 279.347656 145.308594 277.640625 147.414062 268.699219 C 149.515625 277.640625 151.222656 279.347656 160.167969 281.453125 Z M 160.167969 281.453125 " fill-opacity="1" fill-rule="nonzero"/></g><g clip-path="url(#id3)"><path fill="#ffffff" d="M 167.425781 82.449219 C 158.480469 84.554688 156.773438 86.257812 154.671875 95.203125 C 152.570312 86.257812 150.863281 84.554688 141.917969 82.449219 C 150.863281 80.34375 152.570312 78.640625 154.671875 69.695312 C 156.773438 78.640625 158.480469 80.34375 167.425781 82.449219 Z M 167.425781 82.449219 " fill-opacity="1" fill-rule="nonzero"/></g><g clip-path="url(#id4)"><path fill="#ffffff" d="M 227.019531 301.109375 C 222.019531 302.285156 221.066406 303.238281 219.890625 308.234375 C 218.71875 303.238281 217.761719 302.285156 212.765625 301.109375 C 217.761719 299.933594 218.71875 298.980469 219.890625 293.980469 C 221.066406 298.980469 222.019531 299.933594 227.019531 301.109375 Z M 227.019531 301.109375 " fill-opacity="1" fill-rule="nonzero"/></g><g clip-path="url(#id5)"><path fill="#ffffff" d="M 277.398438 187.609375 C 268.453125 189.714844 266.746094 191.417969 264.644531 200.363281 C 262.542969 191.417969 260.835938 189.714844 251.890625 187.609375 C 260.835938 185.507812 262.542969 183.800781 264.644531 174.859375 C 266.746094 183.800781 268.453125 185.507812 277.398438 187.609375 Z M 277.398438 187.609375 " fill-opacity="1" fill-rule="nonzero"/></g><g clip-path="url(#id6)"><path fill="#ffffff" d="M 279.535156 210.320312 C 274.273438 211.558594 273.273438 212.558594 272.035156 217.820312 C 270.796875 212.558594 269.792969 211.558594 264.53125 210.320312 C 269.792969 209.082031 270.796875 208.078125 272.035156 202.816406 C 273.273438 208.078125 274.273438 209.082031 279.535156 210.320312 Z M 279.535156 210.320312 " fill-opacity="1" fill-rule="nonzero"/></g></svg>